<?xml version="1.0" encoding="iso-8859-1"?>
<!-- Generator: Adobe Illustrator 17.1.0, SVG Export Plug-In . SVG Version: 6.00 Build 0)  -->
<!DOCTYPE svg PUBLIC "-//W3C//DTD SVG 1.1//EN" "http://www.w3.org/Graphics/SVG/1.1/DTD/svg11.dtd">
<svg version="1.1" id="Capa_1" xmlns="http://www.w3.org/2000/svg" xmlns:xlink="http://www.w3.org/1999/xlink" x="0px" y="0px"
	 viewBox="0 0 470 470" style="enable-background:new 0 0 470 470;" xml:space="preserve">
<g>
	<path d="M284.208,189.867c-2.316-2.275-5.835-2.803-8.714-1.305c-9.287,4.826-24.425,7.707-40.494,7.707
		s-31.207-2.881-40.494-7.707c-2.88-1.498-6.398-0.971-8.714,1.305l-34.544,33.931c-2.332,2.291-2.912,5.829-1.433,8.744
		l13.351,26.311v35.338c0,53.137,65.427,81.488,68.872,82.942c0.473,0.203,0.97,0.359,1.487,0.463
		c0.02,0.004,0.04,0.005,0.059,0.009c0.22,0.042,0.443,0.077,0.669,0.1c0.248,0.025,0.497,0.038,0.747,0.038
		s0.498-0.013,0.747-0.038c0.227-0.022,0.449-0.058,0.669-0.1c0.02-0.004,0.04-0.005,0.059-0.009
		c0.517-0.104,1.014-0.26,1.487-0.464c3.45-1.456,68.872-29.807,68.872-82.941v-35.338l13.351-26.311
		c1.479-2.915,0.899-6.453-1.433-8.744L284.208,189.867z M227.5,358.09c-17.116-9.534-49.334-31.752-49.334-63.899v-29.632H227.5
		V358.09z M291.834,294.19c0,32.045-32.215,54.31-49.334,63.878v-93.51h49.334V294.19z M294.729,249.559H175.271l-9.594-18.907
		l26.949-26.471c11.214,4.538,26.288,7.089,42.374,7.089s31.16-2.551,42.374-7.089l26.949,26.471L294.729,249.559z"/>
	<path d="M235,187.077c26.142,0,47.409-21.268,47.409-47.409S261.142,92.258,235,92.258s-47.409,21.269-47.409,47.41
		S208.858,187.077,235,187.077z M235,107.258c17.87,0,32.409,14.539,32.409,32.41c0,17.87-14.539,32.409-32.409,32.409
		s-32.409-14.539-32.409-32.409C202.591,121.797,217.13,107.258,235,107.258z"/>
	<path d="M235,162.493c4.143,0,7.5-3.357,7.5-7.5s-3.357-7.5-7.5-7.5c-4.314,0-7.825-3.511-7.825-7.825
		c0-4.315,3.511-7.826,7.825-7.826c4.143,0,7.5-3.357,7.5-7.5s-3.357-7.5-7.5-7.5c-12.586,0-22.825,10.24-22.825,22.826
		S222.414,162.493,235,162.493z"/>
	<path d="M250.325,147.702c4.43,0,8.034-3.604,8.034-8.034c0-4.431-3.604-8.035-8.034-8.035s-8.034,3.604-8.034,8.035
		C242.291,144.098,245.896,147.702,250.325,147.702z"/>
	<path d="M401.17,68.83C356.784,24.444,297.771,0,235,0S113.216,24.444,68.83,68.83S0,172.229,0,235s24.444,121.784,68.83,166.17
		S172.229,470,235,470s121.784-24.444,166.17-68.83S470,297.771,470,235S445.556,113.216,401.17,68.83z M235,455
		c-121.309,0-220-98.691-220-220S113.691,15,235,15s220,98.691,220,220S356.309,455,235,455z"/>
	<path d="M60.502,144.717c1.435,0,2.885-0.411,4.167-1.27l20.801-13.931c1.475-0.988,2.552-2.467,3.039-4.175l5.823-20.422
		l19.908-7.392c1.665-0.618,3.058-1.808,3.928-3.356l10.404-18.511l21.079-2.557c0.019-0.002,0.038-0.007,0.057-0.009
		c0.075-0.01,0.15-0.025,0.225-0.038c0.151-0.024,0.302-0.049,0.452-0.083c0.093-0.021,0.184-0.047,0.276-0.072
		c0.129-0.034,0.258-0.068,0.385-0.109c0.101-0.033,0.2-0.07,0.301-0.107c0.115-0.042,0.229-0.086,0.342-0.134
		c0.103-0.044,0.205-0.091,0.306-0.14c0.108-0.052,0.215-0.106,0.321-0.164c0.098-0.053,0.195-0.107,0.291-0.165
		c0.109-0.065,0.215-0.135,0.32-0.206c0.087-0.059,0.174-0.116,0.259-0.179c0.12-0.088,0.235-0.182,0.349-0.277
		c0.066-0.055,0.133-0.106,0.197-0.163c0.178-0.159,0.351-0.325,0.514-0.501l14.438-15.563l21.086,2.458
		c1.758,0.21,3.537-0.221,5.015-1.199l17.694-11.738l19.935,7.323c1.668,0.613,3.504,0.613,5.172,0l19.935-7.323l17.694,11.738
		c1.478,0.979,3.257,1.409,5.015,1.199l21.086-2.458l14.438,15.563c0.168,0.181,0.346,0.351,0.529,0.513
		c0.068,0.06,0.138,0.115,0.208,0.172c0.116,0.096,0.233,0.189,0.355,0.278c0.088,0.064,0.178,0.125,0.269,0.185
		c0.107,0.071,0.216,0.139,0.327,0.205c0.1,0.059,0.199,0.117,0.301,0.171c0.109,0.058,0.221,0.11,0.333,0.163
		c0.104,0.048,0.206,0.099,0.312,0.142c0.129,0.054,0.261,0.099,0.394,0.145c0.09,0.031,0.178,0.067,0.269,0.095
		c0.219,0.067,0.443,0.124,0.668,0.171c0.078,0.016,0.157,0.025,0.235,0.039c0.132,0.023,0.262,0.05,0.395,0.066l21.079,2.557
		l10.404,18.511c0.87,1.549,2.263,2.738,3.928,3.356l19.907,7.391l5.823,20.422c0.487,1.708,1.564,3.188,3.04,4.175l20.801,13.93
		c3.44,2.306,8.1,1.383,10.404-2.059s1.384-8.1-2.059-10.404l-18.516-12.399l-6.11-21.43c-0.655-2.296-2.364-4.144-4.603-4.975
		l-20.889-7.755l-10.918-19.425c-1.171-2.083-3.264-3.483-5.635-3.771l-22.125-2.684l-15.157-16.339
		c-1.626-1.753-3.992-2.625-6.366-2.349l-22.139,2.58l-18.572-12.321c-1.991-1.321-4.492-1.616-6.732-0.79L235,37.01l-20.915-7.684
		c-2.242-0.825-4.741-0.529-6.732,0.79L188.78,42.438l-22.139-2.58c-2.372-0.284-4.739,0.595-6.366,2.349l-15.157,16.339
		l-22.125,2.684c-2.371,0.287-4.464,1.688-5.635,3.771L106.44,84.424l-20.89,7.756c-2.238,0.831-3.947,2.679-4.603,4.975
		l-6.11,21.43l-18.517,12.4c-3.441,2.305-4.362,6.963-2.058,10.405C55.71,143.55,58.084,144.717,60.502,144.717z"/>
	<path d="M305.095,415.244l-24.865-2.898c-1.758-0.211-3.537,0.221-5.015,1.199l-17.694,11.738l-19.935-7.323
		c-1.668-0.613-3.504-0.613-5.172,0l-19.935,7.323l-17.694-11.738c-1.478-0.979-3.257-1.41-5.015-1.199l-24.865,2.898
		c-4.114,0.479-7.061,4.203-6.581,8.317s4.209,7.069,8.317,6.581l22.139-2.58l18.572,12.321c1.99,1.319,4.49,1.614,6.732,0.79
		L235,432.99l20.915,7.684c0.839,0.309,1.714,0.46,2.585,0.46c1.457,0,2.901-0.424,4.147-1.25l18.572-12.321l22.139,2.58
		c4.11,0.491,7.838-2.466,8.317-6.581C312.155,419.447,309.209,415.724,305.095,415.244z"/>
	<path d="M235,65c-93.738,0-170,76.262-170,170s76.262,170,170,170s170-76.262,170-170S328.738,65,235,65z M235,390
		c-85.468,0-155-69.532-155-155S149.532,80,235,80s155,69.532,155,155S320.468,390,235,390z"/>
	<path d="M138.621,386.88c-13.752-8.746-26.03-19.135-36.681-30.803c-0.33-0.462-0.717-0.886-1.151-1.267
		c-9.753-10.891-18.086-22.879-24.864-35.699c-0.204-0.524-0.471-1.025-0.793-1.498C62.175,292.529,55.145,264.34,55.145,235
		c0-15.153,1.887-30.207,5.608-44.744c1.027-4.013-1.393-8.099-5.405-9.126c-4.01-1.026-8.099,1.393-9.126,5.405
		c-1.41,5.507-2.561,11.085-3.483,16.708l-1.4-2.952c-1.774-3.744-6.248-5.339-9.99-3.563c-3.742,1.774-5.338,6.248-3.563,9.99
		l12.392,26.129c-0.008,0.718-0.033,1.435-0.033,2.152c0,5.738,0.266,11.432,0.755,17.076l-2.109-2.533
		c-2.65-3.185-7.38-3.615-10.563-0.967c-3.184,2.65-3.616,7.379-0.967,10.563l18.408,22.114c1.518,6.264,3.337,12.428,5.456,18.472
		l-2.554-1.844c-3.356-2.424-8.047-1.668-10.471,1.691c-2.425,3.358-1.667,8.046,1.691,10.471l23.229,16.769
		c3.037,5.69,6.352,11.23,9.948,16.596l-2.901-1.139c-3.86-1.518-8.209,0.385-9.722,4.241c-1.514,3.856,0.386,8.209,4.241,9.722
		l26.762,10.502c11.419,12.412,24.547,23.471,39.223,32.805c1.248,0.793,2.641,1.172,4.018,1.172c2.479,0,4.906-1.229,6.335-3.477
		C143.148,393.738,142.116,389.104,138.621,386.88z"/>
	<path d="M442.738,259.139c2.649-3.184,2.217-7.912-0.967-10.563c-3.184-2.648-7.913-2.218-10.563,0.967l-2.109,2.533
		c0.489-5.645,0.755-11.338,0.755-17.076c0-0.718-0.026-1.435-0.033-2.152l12.393-26.129c1.775-3.742,0.181-8.215-3.563-9.99
		c-3.742-1.773-8.216-0.181-9.99,3.563l-1.401,2.953c-0.921-5.623-2.073-11.201-3.483-16.709c-1.026-4.013-5.114-6.431-9.126-5.405
		c-4.013,1.027-6.433,5.113-5.405,9.126c3.722,14.537,5.608,29.591,5.608,44.744c0,29.34-7.031,57.529-19.988,82.613
		c-0.322,0.473-0.589,0.974-0.793,1.498c-6.778,12.82-15.111,24.809-24.864,35.699c-0.434,0.381-0.82,0.805-1.151,1.267
		c-10.651,11.668-22.929,22.057-36.681,30.803c-3.495,2.224-4.527,6.858-2.304,10.354c1.429,2.248,3.855,3.477,6.335,3.477
		c1.377,0,2.771-0.379,4.018-1.172c14.676-9.334,27.804-20.393,39.223-32.805l26.762-10.502c3.855-1.513,5.755-5.865,4.241-9.722
		c-1.513-3.854-5.86-5.758-9.722-4.241l-2.901,1.139c3.596-5.365,6.91-10.905,9.948-16.596l23.229-16.769
		c3.358-2.425,4.116-7.112,1.691-10.471c-2.424-3.358-7.113-4.114-10.471-1.691l-2.554,1.844c2.119-6.044,3.938-12.208,5.456-18.472
		L442.738,259.139z"/>
</g>
<g>
</g>
<g>
</g>
<g>
</g>
<g>
</g>
<g>
</g>
<g>
</g>
<g>
</g>
<g>
</g>
<g>
</g>
<g>
</g>
<g>
</g>
<g>
</g>
<g>
</g>
<g>
</g>
<g>
</g>
</svg>
